<svg viewBox="0 0 470 470" xmlns="http://www.w3.org/2000/svg" xmlns:xlink="http://www.w3.org/1999/xlink" id="Layer_1" overflow="hidden"><path d="M452.2 32.7 383.4 32.7 383.4 7.5C383.4 3.4 380 0 375.9 0L94.1 0C90 0 86.6 3.4 86.6 7.5L86.6 32.7 17.8 32.7C8 32.7 0 40.7 0 50.6L0 379.8C0 389.6 8 397.6 17.8 397.6L181.6 397.6 181.6 455 110.9 455C106.8 455 103.4 458.4 103.4 462.5 103.4 466.6 106.8 470 110.9 470L325.9 470C330 470 333.4 466.6 333.4 462.5 333.4 458.4 330 455 325.9 455L288.4 455 288.4 397.6 319.3 397.6C323.4 397.6 326.8 394.2 326.8 390.1 326.8 386 323.4 382.6 319.3 382.6L17.8 382.6C16.3 382.6 15 381.3 15 379.8L15 50.6C15 49.1 16.3 47.8 17.8 47.8L86.6 47.8 86.6 321.7 38.5 321.7C34.4 321.7 31 325.1 31 329.2 31 333.3 34.4 336.7 38.5 336.7L319.2 336.7C323.3 336.7 326.7 333.3 326.7 329.2 326.7 325.1 323.3 321.7 319.2 321.7L260.3 321.7 260.3 260.4C260.3 256.3 256.9 252.9 252.8 252.9L134.1 252.9C130 252.9 126.6 256.3 126.6 260.4L126.6 321.7 101.6 321.7 101.6 40.2 101.6 15 368.3 15 368.3 83.3C368.3 87.4 371.7 90.8 375.8 90.8 379.9 90.8 383.3 87.4 383.3 83.3L383.3 47.7 452.1 47.7C453.6 47.7 454.9 49 454.9 50.5L454.9 379.7C454.9 381.2 453.6 382.5 452.1 382.5L432.4 382.5C428.3 382.5 424.9 385.9 424.9 390 424.9 394.1 428.3 397.5 432.4 397.5L452.1 397.5C461.9 397.5 469.9 389.5 469.9 379.7L469.9 50.6C470 40.7 462 32.7 452.2 32.7ZM273.4 455 196.7 455 196.7 397.6 273.4 397.6 273.4 455ZM141.6 267.8 245.3 267.8 245.3 321.6 141.6 321.6 141.6 267.8Z" fill="#FF0000"/><path d="M409.9 178.6 409.9 178.3C409.9 178.1 409.8 178 409.8 177.8 409.8 177.7 409.8 177.6 409.7 177.6 409.7 177.4 409.6 177.3 409.5 177.1 409.5 177 409.5 177 409.4 176.9L409.4 176.8 382.8 110.6C381.7 107.8 378.9 105.9 375.8 105.9 372.7 105.9 370 107.8 368.8 110.6L342.2 176.8 342.1 176.9C342.1 177 342.1 177 342 177.1 341.9 177.2 341.9 177.4 341.8 177.6 341.8 177.7 341.8 177.8 341.7 177.8 341.7 178 341.6 178.1 341.6 178.3L341.6 178.6C341.6 178.7 341.6 178.9 341.5 179L341.5 435.9C341.5 454.7 356.8 470 375.6 470 394.4 470 409.7 454.7 409.7 435.9L409.7 179.7 409.7 179C410 178.8 409.9 178.7 409.9 178.6ZM356.7 187.2 395 187.2 395 401.4 356.7 401.4 356.7 187.2ZM375.9 133.5 391.4 172.2 360.3 172.2 375.9 133.5ZM375.9 455C365.3 455 356.8 446.4 356.8 435.9L356.8 416.4 395 416.4 395 435.9C395 446.4 386.4 455 375.9 455ZM134.1 107.8 335.8 107.8C339.9 107.8 343.3 104.4 343.3 100.3L343.3 47.5C343.3 43.4 339.9 40 335.8 40L134.1 40C130 40 126.6 43.4 126.6 47.5L126.6 100.3C126.6 104.4 130 107.8 134.1 107.8ZM141.6 55 328.3 55 328.3 92.8 141.6 92.8 141.6 55ZM335.9 122.8 134.1 122.8C130 122.8 126.6 126.2 126.6 130.3 126.6 134.4 130 137.8 134.1 137.8L335.8 137.8C339.9 137.8 343.3 134.4 343.3 130.3 343.3 126.2 340 122.8 335.9 122.8ZM252.8 162.8 134.1 162.8C130 162.8 126.6 166.2 126.6 170.3 126.6 174.4 130 177.8 134.1 177.8L252.8 177.8C256.9 177.8 260.3 174.4 260.3 170.3 260.3 166.2 257 162.8 252.8 162.8ZM320.7 162.8 282.9 162.8C278.8 162.8 275.4 166.2 275.4 170.3 275.4 174.4 278.8 177.8 282.9 177.8L320.7 177.8C324.8 177.8 328.2 174.4 328.2 170.3 328.2 166.2 324.8 162.8 320.7 162.8ZM252.8 192.8 134.1 192.8C130 192.8 126.6 196.2 126.6 200.3 126.6 204.4 130 207.8 134.1 207.8L252.8 207.8C256.9 207.8 260.3 204.4 260.3 200.3 260.3 196.2 257 192.8 252.8 192.8ZM319.2 192.8 282.8 192.8C278.7 192.8 275.3 196.2 275.3 200.3 275.3 204.4 278.7 207.8 282.8 207.8L319.2 207.8C323.3 207.8 326.7 204.4 326.7 200.3 326.7 196.2 323.4 192.8 319.2 192.8ZM252.8 222.8 134.1 222.8C130 222.8 126.6 226.2 126.6 230.3 126.6 234.4 130 237.8 134.1 237.8L252.8 237.8C256.9 237.8 260.3 234.4 260.3 230.3 260.3 226.2 257 222.8 252.8 222.8ZM319.2 222.8 282.8 222.8C278.7 222.8 275.3 226.2 275.3 230.3 275.3 234.4 278.7 237.8 282.8 237.8L319.2 237.8C323.3 237.8 326.7 234.4 326.7 230.3 326.7 226.2 323.4 222.8 319.2 222.8Z" fill="#FF0000"/></svg>