<svg viewBox="0 0 490 490" xmlns="http://www.w3.org/2000/svg" xmlns:xlink="http://www.w3.org/1999/xlink" overflow="hidden"><path d="M483.8 259.8 445.8 275.8C445.1 276.1 444.4 276.5 443.7 277.1L392.4 320.6 391.5 318.4C386.5 306.5 373.2 300.5 361 304.6L355.4 306.5 351.3 302.3 331.7 269.7 354.2 166.9 365.8 161.1C372.9 157.5 377.3 150 376.8 142 376.3 134 371.1 127.1 363.5 124.4L368.3 102.5C369.1 98.2 366.4 94.1 362.1 93.2 357.9 92.3 353.7 94.9 352.6 99.1L346.7 125.9 285 156.8 261.8 136.9 262.2 134.9C263.5 126.8 262 118.4 257.9 111.2 271.6 110.3 284.1 102.9 291.6 91.4 299.1 79.9 300.8 65.5 296.1 52.6L324.3 38.5C328.3 36.5 329.9 31.7 327.9 27.7 325.9 23.7 321.1 22.1 317.1 24.1L288 38.6C272.6 20.5 245.6 17.9 227 32.8 208.5 47.7 205.1 74.6 219.4 93.6 217 94.1 214.7 94.8 212.5 95.7L213.6 89.7C214.2 86.3 213.5 82.7 211.4 79.9 209.4 77 206.3 75.1 202.8 74.6L166.1 69C155.1 67.3 144.9 74.7 143 85.7L133.7 138.7 123.5 136.5C119.1 135.6 114.5 136.4 110.7 138.9 106.9 141.4 104.3 145.3 103.4 149.7L95.7 188.8C94.8 193.3 95.8 198 98.4 201.7 101 205.5 105.1 208 109.6 208.7L129.1 211.7 129.2 211.7 174.3 217.8 173.9 219.1C170.1 230.3 173 242.6 181.4 250.9 181.7 251.2 182 251.3 182.2 251.6L201 304.9 162 364.2 141.9 388C140.3 389.9 139.7 392.4 140.2 394.7 140.7 397.1 142.2 399.1 144.4 400.2L183.1 419.9 165.8 430.3 0 451.1 2 467 169.4 446C170.5 445.9 171.6 445.5 172.5 444.9L279.4 380.3 335.5 359.6 391.1 339.1 396.9 337C397.8 336.7 398.6 336.2 399.3 335.6L453.1 290 490 274.5 483.8 259.8ZM355.8 323.1 366.2 319.6C370.4 318.2 375.1 320.3 376.8 324.4L377.9 327 338.5 341.5 337.3 341.9 330.8 326.1 343.9 317.4 347.6 321.1C349.8 323.3 353 324.1 355.8 323.1ZM202 243.9C197.4 243.5 193.3 241 190.7 237.1 188.2 233.2 187.6 228.4 189 224.1L190.7 219.1 239.8 219.1 291.7 233.9 314.8 272.3 310.6 291.4 287.7 254.9C286.4 252.8 284.1 251.4 281.6 251.1L202 243.9ZM234.2 203.1 194.4 203.1 198.1 180.6 200.7 180.4C214.1 179.2 227.3 175.7 239.6 170.1L240 170.4 234.2 203.1ZM200.8 164.2 205.5 135.6C206.4 139.8 208.7 143.5 211.9 146.3L226 158.4C217.9 161.4 209.4 163.3 200.8 164.2ZM322.3 347.5 314 350.5 317.3 335.3 322.3 347.5ZM334.2 304.7 327 309.5 323.4 311.9 322.8 310.9 326.8 292.4 334.2 304.7ZM319.8 249.6 303.8 223C302.8 221.3 301.1 220 299.1 219.4L250 205.4 254 182.6 269.2 195.7C275.3 201 284 202 291.2 198.4L335.8 176.1 319.8 249.6ZM355.2 139.6C356.2 139.1 357.3 139 358.3 139.4 359.3 139.7 360.1 140.5 360.6 141.4 361.6 143.4 360.8 145.8 358.8 146.8L284.1 184.2C282.7 184.9 280.9 184.7 279.7 183.6L246.2 154.7 222.4 134.2C221.2 133.1 220.7 131.5 221.2 129.9 221.7 128.4 223.1 127.3 224.7 127.2L225 127.2C226 127.2 226.9 127.5 227.6 128.2L282.9 175.8 355.2 139.6ZM283 67.2C283 79.2 275.4 89.9 264 93.7 252.6 97.5 240.1 93.7 232.8 84.1L281.8 59.6C282.5 62.1 282.9 64.6 283 67.2ZM255 39.2C261.7 39.2 268.2 41.7 273.2 46.1L227.1 69.1C227.1 68.5 226.9 67.9 226.9 67.2 227 51.7 239.5 39.2 255 39.2ZM230.3 109C237.8 110.2 243.9 115.6 246 122.9L238 116C229.8 108.9 217.5 109.7 210.3 117.7 214.6 111 222.5 107.6 230.3 109ZM111.4 191.9 119.1 152.8 111.2 151.3 120.1 152.2 130.9 154.5 123.8 194.8 112.1 193 111.4 191.9ZM158.8 88.4C159.2 86.1 161.4 84.5 163.8 84.8L197.7 89.8 191.5 122.5 191.5 122.7 178.4 202.2 139.7 197 158.8 88.4ZM217.5 303.3 202.2 260 230.8 262.6 237.3 305.2 190.7 373.3 179.7 366.5 216.7 310.3C218 308.2 218.3 305.6 217.5 303.3ZM199.1 410.2 160.6 390.6 170.1 379.4 188.8 390.9C189.4 391.3 190.1 391.6 190.8 391.8 191.5 392 192.2 392.1 193 392.1L193.9 392.1C201.2 392.1 207.5 397 209.4 404L206.9 405.5 199.1 410.2ZM273.2 365.6C272.7 365.8 272.3 366 271.8 366.3L223.3 395.6C220 388 213.9 382 206.3 378.7L252.2 311.6C253.3 309.9 253.8 307.9 253.5 305.9L247.1 264.1 276.2 266.7 305.6 313.8 296.1 357.1 273.2 365.6Z" fill="#FF0000"/></svg>