<svg viewBox="0 0 461 461" xmlns="http://www.w3.org/2000/svg" xmlns:xlink="http://www.w3.org/1999/xlink" id="Layer_1" overflow="hidden"><path d="M8 244.8C24.2 244.8 31.9 249.6 40.8 255.3 50.4 261.4 61.3 268.2 82.1 268.2 102.9 268.2 113.8 261.3 123.4 255.3 132.3 249.7 140 244.8 156.2 244.8 172.4 244.8 180.1 249.6 189 255.3 198.6 261.4 209.5 268.2 230.3 268.2 251.1 268.2 262 261.3 271.6 255.3 280.5 249.7 288.2 244.8 304.4 244.8 320.6 244.8 328.3 249.6 337.2 255.3 346.8 261.4 357.7 268.2 378.5 268.2 399.3 268.2 410.2 261.3 419.8 255.3 428.7 249.7 436.4 244.8 452.6 244.8 457 244.8 460.6 241.2 460.6 236.8 460.6 232.4 457 228.8 452.6 228.8 431.7 228.8 420.9 235.7 411.3 241.7 402.4 247.3 394.7 252.2 378.5 252.2 364 252.2 356.4 248.4 348.6 243.6 348.8 242.9 348.9 242.2 349 241.6L349 123.3C349 112.4 357.8 103.5 368.7 103.5 373.1 103.5 376.7 99.9 376.7 95.5 376.7 91.1 373.1 87.5 368.7 87.5 349 87.5 333 103.5 333 123.3L333 133.5 278.1 133.5 278.1 123.3C278.2 112.3 287.1 103.5 298 103.5 302.4 103.5 306 99.9 306 95.5 306 91.1 302.4 87.5 298 87.5 278.2 87.5 262.2 103.5 262.1 123.3L262.1 240.3C262.1 240.9 262.3 241.4 262.4 242 253.7 247.5 246 252.2 230.1 252.2 213.9 252.2 206.2 247.4 197.3 241.7 187.9 235.8 177.2 229 157.1 228.8 151.5 223.8 147 219.6 142.2 215.2 139.9 213.1 137.5 210.8 134.8 208.3 140.9 213.5 148.6 216.3 156.6 216.3 160.4 216.3 164.2 215.7 167.8 214.4 176.4 211.4 183.4 205.1 187.3 197 191.3 188.9 191.8 179.5 188.7 171 184.8 159.4 174.9 150.9 163 148.6 151 146.3 138.7 150.7 130.8 160 122.9 169.3 120.6 182.1 124.8 193.6 126.5 198.5 129.3 203 133 206.6 129.6 203.5 125.7 200 121.1 195.9 108.8 185 96.6 174 85.2 163.8 80 159.1 74 157.4 67.5 158.8 60.3 160.4 53.1 161.9 45.9 163.4 37.7 165.2 29.2 167 20.8 168.8 10.5 171.3 3.8 181.8 6 192.4 8 202.8 18 209.7 28.4 207.8 39.6 205.7 51 203.3 62.4 200.5 63.2 200.3 64.1 200.1 64.9 200.1 65.1 200.3 65.3 200.5 65.5 200.8 67.5 203.5 69.6 206.1 71.9 208.6 72.3 209 72.5 209.6 72.4 210.1 72.3 210.7 72 211.2 71.6 211.5L38.2 235.2C30.7 231.6 21.5 228.8 8.1 228.8 3.7 228.8 0.1 232.4 0.1 236.8 0.1 241.2 3.6 244.8 8 244.8ZM333.4 199.5 278.5 199.5 278.5 184.5 333.4 184.5 333.4 199.5ZM278.4 233.5 278.4 215.5 333.3 215.5 333.3 234.6C326.3 231.3 317 228.9 304.6 228.9 295.7 228.7 286.8 230.3 278.4 233.5ZM333.4 149.5 333.4 168.5 278.5 168.5 278.5 149.5 333.4 149.5ZM140.8 174.7C142.9 170.4 146.6 167.2 151.1 165.7 160.7 162.4 170.5 167.1 174 176.7 175.6 181.1 175.3 186 173.2 190.3 170.1 196.9 163.3 200.9 156 200.5 148.7 200.1 142.4 195.3 140.1 188.5 138.5 183.9 138.8 179 140.8 174.7ZM80.8 224.6C85 221.6 87.7 217 88.3 211.9 88.9 206.8 87.2 201.7 83.7 197.9 81.8 195.9 80.1 193.8 78.5 191.6 71.6 181.9 62.2 184.2 58.7 185 47.6 187.7 36.4 190.1 25.5 192.1 23.7 192.3 22 191.2 21.7 189.4 21.4 188.4 21.6 187.3 22.1 186.4 22.7 185.5 23.6 184.9 24.6 184.6 32.9 182.8 41.4 181 49.6 179.2 56.8 177.7 64.1 176.1 71.3 174.5 72.4 174.3 73.2 174.2 74.9 175.7 86.3 186 98.6 197 110.9 207.9 120 216 126.3 221.8 131.8 226.9 133.4 228.4 135 229.8 136.6 231.3 127.6 233.8 121.1 237.9 115.1 241.7 106.2 247.3 98.5 252.2 82.3 252.2 68.4 252.2 60.8 248.7 53.3 244.1L80.8 224.6ZM8 297.4C24.2 297.4 31.9 302.2 40.8 307.9 50.4 314 61.3 320.8 82.1 320.8 102.9 320.8 113.8 313.9 123.4 307.9 132.3 302.3 140 297.4 156.2 297.4 172.4 297.4 180.1 302.2 189 307.9 198.6 314 209.5 320.8 230.3 320.8 251.1 320.8 262 313.9 271.6 307.9 280.5 302.3 288.2 297.4 304.4 297.4 320.6 297.4 328.3 302.2 337.2 307.9 346.8 314 357.7 320.8 378.5 320.8 399.3 320.8 410.2 313.9 419.8 307.9 428.7 302.3 436.4 297.4 452.6 297.4 457 297.4 460.6 293.8 460.6 289.4 460.6 285 457 281.4 452.6 281.4 431.7 281.4 420.9 288.3 411.3 294.3 402.4 299.9 394.7 304.8 378.5 304.8 362.3 304.8 354.6 300 345.7 294.4 336.1 288.3 325.2 281.5 304.4 281.5 283.6 281.5 272.7 288.4 263.1 294.4 254.2 300 246.5 304.9 230.3 304.9 214.1 304.9 206.4 300.1 197.5 294.4 187.9 288.3 177 281.5 156.2 281.5 135.4 281.5 124.5 288.4 114.9 294.4 106 300 98.3 304.9 82.1 304.9 65.9 304.9 58.2 300.1 49.3 294.4 39.7 288.3 28.8 281.5 8 281.5 3.6 281.5 0 285.1 0 289.5 0 293.8 3.6 297.4 8 297.4ZM8 349.9C24.2 349.9 31.9 354.7 40.8 360.4 50.4 366.5 61.3 373.3 82.1 373.3 102.9 373.3 113.8 366.4 123.4 360.4 132.3 354.8 140 349.9 156.2 349.9 172.4 349.9 180.1 354.7 189 360.4 198.6 366.5 209.5 373.3 230.3 373.3 251.1 373.3 262 366.4 271.6 360.4 280.5 354.8 288.2 349.9 304.4 349.9 320.6 349.9 328.3 354.7 337.2 360.4 346.8 366.5 357.7 373.3 378.5 373.3 399.3 373.3 410.2 366.4 419.8 360.4 428.7 354.8 436.4 349.9 452.6 349.9 457 349.9 460.6 346.3 460.6 341.9 460.6 337.5 457 333.9 452.6 333.9 431.7 333.9 420.9 340.8 411.3 346.8 402.4 352.4 394.7 357.3 378.5 357.3 362.3 357.3 354.6 352.5 345.7 346.8 336.1 340.7 325.2 333.9 304.4 333.9 283.6 333.9 272.7 340.8 263.1 346.8 254.2 352.4 246.5 357.3 230.3 357.3 214.1 357.3 206.4 352.5 197.5 346.8 187.9 340.7 177 333.9 156.2 333.9 135.4 333.9 124.5 340.8 114.9 346.8 106 352.4 98.3 357.3 82.1 357.3 65.9 357.3 58.2 352.5 49.3 346.8 39.7 340.8 28.8 334 8 334 3.6 334 0 337.6 0 342 0 346.4 3.6 349.9 8 349.9Z" fill="#FF0000"/></svg>