<svg viewBox="0 0 512 512" xmlns="http://www.w3.org/2000/svg" xmlns:xlink="http://www.w3.org/1999/xlink" id="Capa_1" overflow="hidden"><path d="M496.2 176.6C454.8 44.1 313.3-29.9 180.7 11.5 48.2 53-25.8 194.5 15.7 327L32 321.9C-6.7 198.4 62.3 66.5 185.8 27.8 245.6 9.1 309.2 14.8 364.7 43.8 420.3 72.9 461.2 121.8 479.9 181.7 498.6 241.5 492.9 305.1 463.9 360.6 434.8 416.2 385.9 457.1 326 475.8 225.8 507.1 116.1 467.6 59 379.5L44.7 388.8C91.9 461.6 172.7 503.5 256.4 503.5 281.3 503.5 306.5 499.8 331.1 492.1 395.3 472 447.8 428.1 479 368.5 510.2 308.9 516.3 240.8 496.2 176.6Z" stroke-width="8" fill="#FF0000"/><path d="M206.5 119.4 211.4 103.1 126.1 77.5C123.1 76.6 119.8 77.4 117.6 79.6L100.5 96.7C98.5 98.7 97.6 101.5 98.1 104.3 98.6 107.1 100.5 109.4 103 110.5L179.8 144.6 186.7 129 121.4 100 126.1 95.3 206.5 119.4Z" stroke-width="8" fill="#FF0000"/><path d="M285.7 68.6C285.7 63.9 281.9 60.1 277.2 60.1 258.4 60.1 240.8 67.4 227.5 80.7L155.2 153 125.8 145.6C122.9 144.9 119.8 145.7 117.7 147.8L100.6 164.9C98.7 166.8 97.8 169.4 98.2 172 98.5 174.6 100 176.9 102.3 178.3L143.1 202.8 167.6 243.6C168.9 245.9 171.3 247.4 173.9 247.7 174.2 247.7 174.6 247.8 174.9 247.8 177.1 247.8 179.3 246.9 180.9 245.3L198 228.2C200.1 226.1 201 223 200.2 220.1L192.8 190.7 266.3 117.9C278.9 104.8 285.8 87.5 285.7 68.6ZM177.4 181.9C175.3 184 174.4 187.1 175.1 190L182.5 219.4 176.6 225.3 156.6 192C155.9 190.8 154.9 189.8 153.7 189.1L120.4 169.1 126.3 163.2 155.7 170.6C158.6 171.3 161.7 170.5 163.8 168.4L239.5 92.7C247.3 84.8 257.2 79.8 267.9 77.9 266.2 88.4 261.4 98.2 254 105.9L177.4 181.9Z" stroke-width="8" fill="#FF0000"/><path d="M268.3 220.8 242.7 134.4 226.3 139.2 250.3 220.4 245.1 225 216.7 159 201 165.8 234.1 242.6C235.2 245.1 237.4 247 240.1 247.5 240.7 247.6 241.3 247.7 242 247.7 244.1 247.7 246.1 247 247.6 245.6L265.7 229.7C268.3 227.4 269.3 224 268.3 220.8ZM166.6 470.3C105.9 499.1 58.2 502.8 35.9 480.5-2.8 441.8 39.2 329.5 133.6 219.1L120.6 208C17.1 329.1-22.7 446 23.8 492.5 36.8 505.5 55.1 512 77.9 512 104.4 512 136.9 503.2 173.9 485.7L166.6 470.3ZM455.3 294.9C453.8 292.1 450.9 290.4 447.8 290.4L419 290.4 395.8 243.9C394.3 241 391.4 239.2 388.2 239.2L302.9 239.2C298.2 239.2 294.4 243 294.4 247.7L294.4 315.9C294.4 320.6 298.2 324.4 302.9 324.4L328.5 324.4 328.5 418.2C328.5 422.9 332.3 426.7 337 426.7L379.6 426.7C381.9 426.7 384 425.8 385.6 424.2L419.7 390.1C421.3 388.5 422.2 386.3 422.2 384.1L422.2 352.6 454.9 303.6C456.6 301 456.8 297.6 455.3 294.9ZM406.6 345.3C405.7 346.7 405.2 348.4 405.2 350L405.2 380.6 376 409.8 345.4 409.8 345.4 316C345.4 311.3 341.6 307.5 336.9 307.5L311.3 307.5 311.3 256.3 382.8 256.3 406 302.8C407.5 305.7 410.4 307.5 413.6 307.5L431.8 307.5 406.6 345.3ZM461.3 222.1 429.6 166.7C428.1 164 425.2 162.4 422.2 162.4L371 162.4C368.2 162.4 365.5 163.8 363.9 166.2L349.4 188 328.4 188 328.4 145.4 371 145.4C373.3 145.4 375.4 144.5 377 142.9L408.6 111.3 447.7 111.3 447.7 94.2 405.1 94.2C402.8 94.2 400.7 95.1 399.1 96.7L367.5 128.3 319.9 128.3C315.2 128.3 311.4 132.1 311.4 136.8L311.4 196.5C311.4 201.2 315.2 205 319.9 205L354 205C356.8 205 359.5 203.6 361.1 201.2L375.6 179.4 417.3 179.4 449 234.8C450.5 237.5 453.4 239.1 456.4 239.1L490.5 239.1 490.5 222 461.3 222.1Z" stroke-width="8" fill="#FF0000"/><path d="M251.6 307.4 204 307.4 180.9 284.3C179.3 282.7 177.1 281.8 174.9 281.8L132.3 281.8C127.6 281.8 123.8 285.6 123.8 290.3L123.8 350C123.8 354.7 127.6 358.5 132.3 358.5L166.4 358.5 166.4 443.8C166.4 447 168.2 450 171.1 451.4 172.3 452 173.6 452.3 174.9 452.3 176.7 452.3 178.5 451.7 180 450.6L214.1 425C216.2 423.4 217.5 420.9 217.5 418.2L217.5 396.7 256.9 365.2C258.9 363.6 260.1 361.1 260.1 358.5L260.1 315.9C260.2 311.2 256.3 307.4 251.6 307.4ZM243.1 354.5 203.6 386C201.6 387.6 200.4 390.1 200.4 392.7L200.4 414 183.3 426.8 183.3 350C183.3 345.3 179.5 341.5 174.8 341.5L140.7 341.5 140.7 298.9 171.3 298.9 194.4 322C196 323.6 198.2 324.5 200.4 324.5L243 324.5 243.1 354.5ZM79.8 183.6 54.2 141C52.7 138.4 49.9 136.9 46.9 136.9L38.4 136.9 38.4 154 42.1 154 61.8 186.8 40.9 207.7C39.3 209.3 38.4 211.5 38.4 213.7L38.4 239.3 12.8 239.3 12.8 256.4 46.9 256.4C51.6 256.4 55.4 252.6 55.4 247.9L55.4 217.3 78.5 194C81.3 191.3 81.8 187 79.8 183.6ZM268.7 8.9 268.7 19.3 241 26.2C240.1 26.4 239.1 26.8 238.3 27.4L216.8 41.7 170.1 18.3 162.5 33.6 213.7 59.2C214.9 59.8 216.2 60.1 217.5 60.1 219.2 60.1 220.8 59.6 222.2 58.7L246.6 42.5 279.3 34.3C283.1 33.4 285.8 29.9 285.8 26L285.8 8.9 268.7 8.9Z" stroke-width="8" fill="#FF0000"/></svg>